<?xml version="1.0" standalone="no"?>
<!DOCTYPE svg PUBLIC "-//W3C//DTD SVG 20010904//EN"
 "http://www.w3.org/TR/2001/REC-SVG-20010904/DTD/svg10.dtd">
<svg version="1.0" xmlns="http://www.w3.org/2000/svg"
 width="595.000000pt" height="595.000000pt" viewBox="0 0 595.000000 595.000000"
 preserveAspectRatio="xMidYMid meet">
<metadata>
Created by potrace 1.11, written by Peter Selinger 2001-2013
</metadata>
<g transform="translate(0.000000,595.000000) scale(0.100000,-0.100000)"
fill="#000000" stroke="none">
<path d="M3556 5400 l-38 -5 21 -19 c12 -11 28 -21 36 -22 8 -1 22 -9 31 -18
13 -14 13 -16 0 -16 -8 0 -18 4 -21 10 -5 9 -19 8 -95 -4 -36 -6 -80 4 -77 18
1 6 -16 12 -40 14 -34 2 -43 0 -43 -12 0 -13 -12 -16 -57 -17 -32 0 -67 -3
-78 -5 -11 -3 -87 -7 -170 -8 -122 -3 -163 -8 -220 -26 -38 -12 -74 -23 -80
-24 -28 -6 -101 -30 -108 -36 -8 -7 174 29 273 54 36 9 83 14 105 11 28 -3 35
-2 25 5 -13 8 -12 10 3 10 9 0 17 -4 17 -10 0 -5 15 -10 33 -9 29 0 119 -16
157 -29 25 -8 -78 -31 -155 -34 -54 -2 -71 -6 -67 -16 3 -9 14 -11 33 -7 29 7
41 -8 16 -18 -7 -3 -70 -6 -140 -6 -70 -1 -138 -6 -150 -11 -20 -8 -20 -9 8
-9 28 -1 28 -2 10 -15 -11 -7 -45 -16 -75 -20 -69 -8 -140 -26 -140 -36 0 -4
-6 -7 -12 -7 -21 0 -90 -35 -95 -49 -2 -7 -10 -11 -17 -8 -7 3 -18 -2 -25 -10
-7 -8 -18 -13 -24 -10 -7 2 -25 -7 -42 -20 l-30 -25 25 -9 c14 -5 27 -6 30 -3
9 13 40 21 40 11 0 -6 -4 -10 -10 -10 -5 0 -10 -5 -10 -11 0 -5 5 -7 11 -3 7
4 9 -1 7 -12 -3 -13 -11 -18 -26 -17 -13 2 -21 -1 -17 -7 3 -6 -1 -7 -10 -4
-11 5 -18 0 -21 -13 -3 -12 -18 -26 -32 -33 -23 -11 -24 -14 -9 -18 24 -5 18
-20 -18 -40 -36 -20 -48 -37 -55 -76 -3 -16 -14 -34 -25 -40 -11 -6 -23 -15
-27 -21 -4 -5 -11 -6 -15 -1 -8 7 17 30 41 39 6 2 8 8 4 12 -5 5 -16 1 -26 -8
-10 -10 -26 -17 -34 -17 -9 0 -22 -7 -29 -17 -13 -15 -12 -15 8 -5 17 9 22 9
26 -2 6 -15 -33 -49 -88 -79 -39 -21 -19 -22 30 -1 42 17 52 14 35 -13 -14
-20 -94 -83 -108 -83 -5 0 -28 -14 -51 -30 -23 -17 -53 -35 -67 -40 -14 -6
-23 -14 -19 -19 3 -5 0 -13 -6 -17 -8 -4 -9 -3 -5 4 10 17 2 15 -41 -10 -63
-37 -143 -98 -143 -110 0 -6 -3 -8 -7 -4 -4 3 9 23 29 44 40 43 83 102 73 102
-4 0 -20 -11 -37 -25 -16 -14 -36 -25 -44 -25 -8 0 -19 -12 -25 -27 -7 -16
-16 -38 -22 -50 -7 -16 -7 -30 1 -48 12 -26 8 -29 -35 -28 -6 0 -9 -5 -7 -12
3 -6 -2 -18 -11 -25 -8 -7 -15 -20 -15 -30 0 -10 -6 -20 -14 -23 -8 -3 -20
-25 -27 -49 -11 -43 -21 -70 -39 -110 -14 -32 -30 -88 -24 -88 2 0 9 11 14 25
5 14 18 28 27 31 34 11 58 24 107 59 59 43 80 45 41 5 -16 -16 -36 -30 -46
-30 -9 0 -42 -25 -74 -55 -31 -30 -63 -55 -71 -55 -8 0 -14 -6 -15 -12 0 -7
-2 -38 -4 -68 -2 -30 -13 -91 -25 -135 -22 -85 -40 -298 -22 -280 5 6 14 33
19 60 17 83 43 207 55 260 23 105 94 213 172 262 71 45 160 20 182 -51 3 -11
13 -28 21 -38 29 -33 -5 -26 -61 14 -49 35 -62 40 -93 35 -19 -4 -44 -14 -55
-24 -30 -27 -72 -92 -92 -143 -21 -53 -32 -160 -16 -160 5 0 10 4 10 10 0 24
86 140 105 140 7 0 19 7 26 16 39 48 113 41 148 -13 l23 -36 13 24 13 24 7
-27 c4 -14 15 -28 26 -31 22 -6 26 -27 4 -27 -23 0 -18 -27 8 -35 12 -4 26 -7
30 -6 4 1 10 -5 13 -12 11 -29 76 3 103 50 5 10 12 16 14 13 5 -5 -30 -97 -55
-148 -9 -16 -9 -25 -2 -30 7 -5 5 -17 -7 -37 -27 -44 -32 -55 -26 -61 14 -14
56 38 197 245 85 127 159 187 380 311 86 48 113 65 140 88 15 12 33 22 39 22
6 0 31 18 55 40 24 22 49 40 56 40 7 0 44 33 82 73 59 62 68 76 64 100 -4 19
-1 30 10 34 8 3 13 11 10 18 -3 8 6 16 20 19 22 6 25 11 20 34 -5 20 0 34 17
54 13 15 27 25 30 22 8 -8 47 19 47 32 0 6 14 14 30 18 18 3 30 12 30 21 0 8
7 15 15 15 8 0 15 -3 15 -8 0 -13 94 -1 111 14 12 11 28 13 58 8 22 -4 41 -9
41 -13 0 -6 34 -9 166 -13 52 -2 87 -8 98 -17 10 -8 28 -15 41 -16 13 0 32 -8
43 -18 12 -11 35 -17 65 -17 28 0 52 -6 62 -16 13 -13 18 -14 31 -3 13 11 17
10 25 -3 12 -21 89 -23 89 -2 0 14 18 29 26 21 3 -3 1 -15 -6 -26 -9 -18 -8
-21 9 -21 22 0 74 -43 65 -53 -3 -3 11 -9 32 -13 22 -5 42 -9 47 -10 4 -1 11
-2 16 -3 4 0 11 -22 14 -48 13 -99 28 -128 74 -151 21 -10 37 -23 36 -29 -1
-6 4 -14 13 -17 8 -3 12 -2 9 3 -3 5 8 3 25 -5 21 -11 30 -23 30 -40 0 -13 5
-24 11 -24 6 0 9 -6 6 -14 -3 -8 3 -22 14 -32 10 -9 19 -22 19 -29 0 -7 9 -20
19 -29 11 -10 23 -32 26 -48 4 -17 15 -45 25 -62 23 -38 77 -220 83 -275 10
-102 -38 -284 -117 -446 -30 -60 -73 -150 -97 -200 -40 -86 -42 -89 -49 -60
-12 50 -41 96 -65 105 -20 8 -76 52 -151 118 -18 16 -107 48 -154 56 -8 1 -28
8 -43 14 -51 21 -87 14 -100 -20 -3 -10 -16 -18 -27 -18 -11 0 -20 -5 -20 -11
0 -6 -11 -24 -25 -41 -14 -16 -25 -35 -25 -42 0 -8 -16 -46 -36 -86 -32 -64
-37 -85 -46 -190 -12 -141 -7 -179 32 -222 17 -18 30 -36 30 -41 0 -14 78 -87
94 -87 8 0 16 -5 18 -11 2 -6 32 -13 66 -16 53 -5 62 -3 62 11 0 9 7 16 15 16
18 0 19 12 3 28 -8 8 -4 19 19 42 l31 31 25 -25 c37 -37 76 -24 92 31 7 22 16
46 21 54 5 8 9 16 10 19 0 3 3 12 7 20 5 13 19 95 21 125 1 5 12 15 26 22 33
16 49 1 45 -45 -3 -47 -22 -97 -96 -250 -33 -69 -58 -127 -55 -130 8 -7 323
312 373 378 50 66 74 107 109 180 14 30 30 62 35 70 4 8 27 51 49 95 22 44 58
102 80 128 22 27 45 67 51 89 6 22 15 48 20 57 5 9 20 43 32 76 13 33 27 58
31 55 12 -8 46 100 44 144 0 23 -6 48 -12 56 -5 8 -6 12 -2 8 33 -28 63 116
31 149 -20 19 -19 43 1 43 32 0 43 32 44 122 0 48 -4 90 -10 93 -5 3 -10 17
-10 29 0 13 -7 30 -16 37 -9 7 -20 22 -25 34 -19 39 -38 70 -52 80 -7 5 -26
37 -42 70 -15 33 -31 62 -34 65 -4 3 -15 21 -24 41 -9 20 -24 40 -32 43 -9 3
-15 11 -14 18 3 28 -1 48 -11 48 -18 0 -59 54 -60 77 0 25 -15 39 -25 23 -12
-20 -24 -9 -31 28 -4 20 -19 51 -33 67 -14 17 -37 47 -51 68 -14 20 -31 37
-37 37 -7 0 -13 5 -13 10 0 6 -10 10 -22 10 -17 0 -28 11 -42 43 l-20 42 -4
-30 c-4 -28 -16 -44 -35 -45 -4 0 -3 9 3 19 8 17 6 20 -13 23 -20 3 -22 8 -19
48 l3 45 -16 -30 c-30 -56 -41 -61 -59 -24 -22 44 -21 49 14 49 36 0 40 22 8
44 -39 27 -75 17 -46 -12 9 -9 9 -12 -2 -12 -14 1 -58 57 -100 127 -19 32 -99
93 -122 93 -7 0 -19 9 -26 20 -15 24 -34 27 -25 4 5 -13 2 -15 -15 -9 -24 7
-30 -9 -9 -22 6 -4 19 -17 27 -28 8 -11 -4 -3 -27 18 -28 27 -39 45 -36 58 3
11 0 19 -6 19 -7 0 -9 -4 -6 -10 3 -5 2 -10 -4 -10 -5 0 -12 4 -15 8 -11 17
-195 123 -233 134 -44 12 -101 15 -157 8z m4 -120 c0 -12 -8 -12 -35 0 -18 8
-17 9 8 9 15 1 27 -3 27 -9z m545 -110 c3 -5 1 -10 -4 -10 -6 0 -11 5 -11 10
0 6 2 10 4 10 3 0 8 -4 11 -10z m-1410 -120 c-14 -6 -15 -9 -5 -10 25 -1 -33
-29 -62 -30 -29 0 -37 -13 -16 -26 7 -5 -27 -17 -82 -31 -52 -12 -96 -20 -99
-18 -2 3 5 7 15 11 44 15 144 64 179 88 21 14 50 26 64 25 23 0 24 -1 6 -9z
m1445 -72 c0 -18 -2 -20 -9 -8 -6 8 -7 18 -5 22 9 14 14 9 14 -14z m-1670 2
c-20 -13 -33 -13 -25 0 3 6 14 10 23 10 15 0 15 -2 2 -10z m1684 -52 c10 -49
12 -88 4 -88 -4 0 -8 13 -8 29 0 16 -4 41 -10 55 -6 17 -6 26 0 26 5 0 12 -10
14 -22z m-57 -70 c-3 -7 -5 -2 -5 12 0 14 2 19 5 13 2 -7 2 -19 0 -25z m70
-70 c-3 -8 -6 -5 -6 6 -1 11 2 17 5 13 3 -3 4 -12 1 -19z m63 -8 c0 -5 -5 -10
-11 -10 -5 0 -7 5 -4 10 3 6 8 10 11 10 2 0 4 -4 4 -10z m-63 -32 c-3 -8 -6
-5 -6 6 -1 11 2 17 5 13 3 -3 4 -12 1 -19z m160 -210 c-3 -7 -5 -2 -5 12 0 14
2 19 5 13 2 -7 2 -19 0 -25z m253 -58 c-13 -18 -26 -27 -35 -23 -22 8 -18 21
13 37 40 22 46 19 22 -14z m-2460 -59 c0 -5 -9 -13 -20 -16 -11 -4 -18 -11
-15 -16 4 -5 -6 -14 -20 -19 -15 -6 -41 -21 -59 -35 -18 -14 -40 -25 -49 -25
-9 0 -19 -5 -23 -12 -5 -8 0 -9 17 -4 32 10 109 24 109 19 0 -3 -117 -59 -239
-115 -35 -15 -66 -26 -68 -24 -8 7 7 26 20 26 7 0 18 9 25 21 11 17 11 20 0
13 -7 -5 -20 -9 -28 -11 -8 -1 -16 -7 -18 -12 -2 -6 -11 -11 -20 -11 -13 0
-12 4 5 23 11 12 25 31 31 42 6 11 12 14 12 7 0 -14 80 35 80 49 0 5 6 9 14 9
7 0 35 17 62 38 27 20 65 42 84 48 44 15 100 17 100 5z m-25 -101 c-3 -5 -12
-10 -18 -10 -7 0 -6 4 3 10 19 12 23 12 15 0z m2779 -107 c-20 -30 -34 -43
-48 -43 -6 0 5 14 22 31 18 17 32 36 32 42 0 6 3 8 6 5 3 -4 -3 -19 -12 -35z
m47 -36 c-10 -9 -11 -8 -5 6 3 10 9 15 12 12 3 -3 0 -11 -7 -18z m60 -60 c-8
-8 -11 -5 -11 9 0 27 14 41 18 19 2 -9 -1 -22 -7 -28z m39 -15 c0 -13 -12 -22
-22 -16 -10 6 -1 24 13 24 5 0 9 -4 9 -8z m-2960 -36 c0 -11 -19 -15 -25 -6
-3 5 1 10 9 10 9 0 16 -2 16 -4z m3005 -144 c-7 -8 -35 7 -35 18 0 6 7 6 20
-2 10 -7 17 -14 15 -16z m-886 -1256 c13 -15 18 -82 7 -93 -10 -10 -26 17 -26
45 0 13 -5 32 -10 43 -8 15 -7 19 3 19 8 0 20 -6 26 -14z"/>
<path d="M1885 4280 c-16 -7 -17 -9 -3 -9 9 -1 20 4 23 9 7 11 7 11 -20 0z"/>
<path d="M2760 5231 c-39 -11 -9 -21 34 -11 21 4 40 11 43 14 8 8 -45 6 -77
-3z"/>
<path d="M2307 4936 c-4 -10 -5 -21 -2 -24 9 -9 17 6 13 25 -3 17 -4 17 -11
-1z"/>
<path d="M2255 4929 c-4 -6 -4 -13 -1 -16 8 -8 36 5 36 17 0 13 -27 13 -35 -1z"/>
<path d="M1984 4696 c-10 -8 -16 -17 -12 -21 8 -8 48 13 48 25 0 14 -13 12
-36 -4z"/>
<path d="M1882 4612 c-35 -30 -40 -42 -18 -42 14 0 62 57 54 65 -2 2 -18 -8
-36 -23z"/>
<path d="M1869 4483 c-13 -16 -12 -17 4 -4 9 7 17 15 17 17 0 8 -8 3 -21 -13z"/>
<path d="M2935 3802 c-11 -3 -23 -9 -27 -15 -3 -5 -22 -11 -42 -12 -20 -1 -39
-5 -42 -8 -3 -3 -12 -3 -20 0 -9 3 -14 -2 -14 -16 0 -13 7 -21 18 -22 153 -6
233 -39 315 -131 39 -44 47 -68 22 -68 -8 0 -19 -9 -25 -19 -9 -17 -14 -19
-43 -9 -59 19 -162 59 -182 70 -11 6 -51 13 -89 16 -57 4 -70 2 -78 -12 -5 -9
-15 -16 -23 -16 -8 0 -21 -10 -29 -21 -13 -19 -13 -23 0 -36 8 -8 21 -12 29
-9 8 3 15 1 15 -4 0 -6 -11 -10 -24 -10 -13 0 -29 -7 -36 -15 -12 -14 -6 -35
10 -35 5 0 26 -11 46 -25 20 -14 33 -25 29 -25 -4 0 -2 -7 5 -15 9 -10 9 -15
1 -15 -8 0 -8 -6 1 -21 10 -16 10 -23 2 -26 -29 -10 -4 -41 106 -132 20 -17
22 -20 8 -21 -10 0 -27 9 -38 20 -21 21 -80 39 -80 25 0 -11 88 -105 122 -130
7 -6 38 -26 68 -45 30 -19 57 -37 60 -40 3 -3 16 -6 29 -8 14 -1 33 -10 42
-18 10 -9 23 -13 29 -9 6 4 18 1 26 -6 13 -11 18 -10 26 4 5 10 14 14 21 10 6
-4 31 -7 55 -8 38 0 47 4 65 30 12 16 27 36 34 43 7 8 18 22 23 33 8 14 22 19
53 19 63 0 80 8 106 45 19 29 28 34 62 33 22 0 59 10 85 23 41 21 49 30 65 79
10 31 14 59 9 64 -5 5 -6 15 -3 23 3 8 -4 21 -16 29 -11 8 -21 21 -21 29 0 8
-9 19 -20 25 -11 6 -20 17 -20 24 0 7 -13 16 -30 20 -19 3 -30 12 -30 22 0 10
-5 14 -15 10 -8 -3 -15 -1 -15 4 0 13 -81 100 -93 100 -5 0 -23 11 -41 25 -18
14 -36 25 -40 25 -5 0 -28 14 -53 30 -24 17 -47 30 -51 30 -4 0 -24 14 -46 30
-21 16 -62 36 -90 44 -51 14 -174 25 -211 18z m108 -339 c58 -28 89 -55 75
-68 -2 -2 -21 1 -43 6 -22 6 -74 17 -115 25 -41 8 -95 21 -120 29 -25 8 -57
15 -71 15 -15 0 -29 6 -32 13 -3 9 24 12 117 12 115 -1 125 -2 189 -32z m-137
-117 c8 -9 10 -17 5 -21 -6 -3 -8 -13 -5 -23 4 -9 -3 -3 -14 13 -26 40 -17 61
14 31z"/>
<path d="M1785 3510 c-95 -7 -117 -18 -150 -71 -26 -41 -27 -63 -5 -114 7 -16
14 -36 16 -43 5 -25 12 -23 22 7 12 34 42 56 91 66 45 10 120 62 132 92 11 29
2 74 -15 71 -6 0 -47 -4 -91 -8z"/>
<path d="M1990 3505 c-7 -9 -11 -18 -8 -20 3 -3 11 1 18 10 7 9 11 18 8 20 -3
3 -11 -1 -18 -10z"/>
<path d="M1970 3360 c0 -6 7 -10 15 -10 8 0 15 2 15 4 0 2 -7 6 -15 10 -8 3
-15 1 -15 -4z"/>
<path d="M1861 3234 c0 -11 3 -14 6 -6 3 7 2 16 -1 19 -3 4 -6 -2 -5 -13z"/>
<path d="M1371 3178 c-22 -36 -44 -101 -46 -141 -1 -21 -9 -52 -18 -70 -21
-44 -48 -137 -42 -147 3 -4 -2 -25 -11 -46 -20 -46 -47 -229 -39 -256 4 -10 1
-18 -5 -18 -6 0 -8 6 -4 13 4 6 3 9 -1 4 -5 -4 -10 -26 -12 -50 -3 -23 -9 -46
-14 -51 -5 -6 -9 -17 -9 -25 0 -8 -12 -43 -26 -78 -18 -48 -22 -68 -14 -77 5
-8 8 -21 4 -29 -14 -36 9 -37 52 -2 27 22 44 31 45 23 2 -25 -3 -43 -19 -68
-18 -28 -25 -70 -12 -70 4 0 10 6 13 14 4 10 21 13 62 12 50 -3 58 -6 74 -32
26 -42 49 -60 55 -43 52 154 99 287 121 339 69 162 126 320 137 380 14 77 13
76 32 61 12 -10 16 -6 25 26 6 21 11 46 11 56 0 19 -15 23 -25 7 -4 -6 -23
-17 -43 -25 -53 -23 -144 -11 -178 23 -32 32 -54 84 -54 127 0 19 -9 43 -24
60 -21 24 -23 32 -14 57 13 37 -2 56 -21 26z"/>
<path d="M2697 2486 c-9 -7 -34 -16 -55 -20 -50 -8 -124 -70 -102 -86 8 -5 18
-10 21 -10 9 0 137 88 159 110 22 22 5 27 -23 6z"/>
<path d="M3030 2345 c0 -8 12 -33 26 -57 25 -41 38 -53 133 -123 41 -30 50
-52 30 -72 -13 -13 -71 16 -65 33 6 16 -46 43 -82 42 -26 -1 -29 -3 -16 -12
13 -10 13 -15 0 -40 -15 -29 -12 -50 9 -76 7 -8 16 -25 19 -37 4 -13 11 -23
15 -23 5 0 26 -14 47 -31 21 -17 59 -40 84 -51 25 -11 61 -28 81 -38 32 -16
39 -16 69 -3 19 7 43 21 53 31 23 21 53 85 62 134 4 20 13 39 21 42 28 11 13
25 -43 42 -64 20 -100 20 -123 -1 -21 -19 -66 -29 -74 -16 -4 6 -2 11 3 11 22
0 10 57 -21 110 -30 49 -42 59 -127 102 -51 26 -95 48 -97 48 -2 0 -4 -7 -4
-15z"/>
<path d="M3650 2113 c-13 -32 -25 -65 -26 -73 -4 -35 -36 -229 -45 -275 -23
-111 -20 -118 49 -104 17 4 35 3 38 -2 9 -15 34 -10 34 6 0 17 39 41 59 36 13
-2 13 0 1 14 -17 20 -19 35 -24 155 -2 57 -10 111 -20 134 -9 21 -16 49 -16
62 0 12 -5 26 -10 29 -6 4 -8 10 -6 14 3 4 2 20 -2 35 -7 27 -9 25 -32 -31z"/>
<path d="M2593 2150 c-36 -14 -30 -53 13 -88 23 -19 43 -28 55 -25 11 3 27 -1
37 -9 9 -8 44 -27 77 -43 33 -16 71 -38 84 -49 49 -43 70 -69 65 -77 -3 -5 1
-12 10 -15 8 -3 22 -17 31 -31 13 -19 14 -27 4 -39 -8 -9 -16 -11 -23 -5 -6 5
-35 13 -64 17 -28 3 -52 10 -52 15 0 15 -28 10 -38 -6 -4 -9 -24 -23 -43 -33
-44 -22 -47 -46 -16 -119 14 -32 28 -66 31 -75 3 -10 14 -18 25 -18 11 0 23
-4 26 -10 3 -5 29 -21 58 -35 29 -15 63 -37 77 -50 34 -32 90 -54 115 -45 11
4 25 5 31 3 6 -2 14 3 17 11 4 9 24 23 47 32 22 9 50 28 63 43 12 15 31 30 41
34 16 6 14 10 -15 31 -19 12 -33 28 -31 35 4 19 -26 43 -56 45 -37 2 -102 35
-110 55 -3 9 -10 19 -16 23 -23 15 7 21 47 10 23 -7 82 -22 132 -33 49 -10 96
-26 104 -34 13 -13 13 -15 1 -15 -21 -1 19 -30 40 -30 9 0 39 -11 66 -25 27
-14 50 -25 51 -25 1 0 9 13 18 30 28 53 15 130 -19 117 -12 -5 -44 17 -104 68
-52 45 -95 75 -109 75 -43 0 -129 40 -180 84 -50 42 -171 100 -278 132 -27 9
-80 31 -116 50 -37 19 -68 34 -70 33 -2 0 -14 -4 -26 -9z"/>
<path d="M1177 1680 c-59 -21 -122 -45 -141 -54 -19 -9 -39 -16 -46 -16 -7 0
-33 -11 -59 -24 -25 -13 -111 -56 -191 -96 -147 -73 -250 -135 -250 -149 0
-11 100 -150 174 -241 82 -102 197 -221 207 -214 5 3 27 37 50 76 39 66 219
265 219 242 0 -5 11 9 24 31 22 37 76 245 76 292 0 11 7 40 16 64 29 79 43
129 36 128 -4 -1 -55 -19 -115 -39z"/>
<path d="M1884 1667 c-3 -15 -7 -40 -8 -58 -1 -17 -11 -38 -22 -46 -13 -11
-15 -17 -6 -20 6 -3 12 -11 12 -19 0 -8 5 -14 11 -14 6 0 8 -9 4 -20 -4 -14
-2 -20 8 -20 18 0 30 -41 17 -54 -16 -16 -12 -25 20 -41 21 -11 30 -23 30 -40
0 -15 -6 -25 -14 -25 -21 0 -29 -18 -28 -56 1 -18 -5 -40 -13 -48 -13 -12 -12
-15 2 -21 15 -5 15 -7 3 -16 -13 -7 -13 -10 -1 -18 9 -6 10 -11 2 -15 -6 -4
-11 -2 -11 4 0 6 -4 8 -10 5 -5 -3 -10 1 -10 9 0 8 -4 17 -9 21 -6 3 -5 -10 1
-32 8 -31 7 -42 -12 -75 -12 -21 -18 -42 -15 -48 3 -5 -3 -10 -14 -10 -12 0
-21 -4 -21 -10 0 -5 4 -10 9 -10 12 0 -10 -60 -28 -80 -12 -13 -12 -15 5 -20
19 -5 32 -30 15 -30 -5 0 -11 -13 -14 -29 -4 -18 -14 -32 -27 -36 -27 -8 -26
-31 2 -46 14 -8 18 -14 10 -17 -6 -2 -12 -10 -12 -17 0 -7 -12 -16 -26 -19
-22 -6 -25 -11 -20 -31 8 -30 -3 -77 -15 -69 -5 3 -9 1 -9 -5 0 -5 -3 -17 -7
-26 -6 -16 -4 -16 21 1 24 15 31 16 49 5 18 -12 23 -10 39 10 l19 24 -7 -25
c-4 -14 -11 -26 -15 -28 -5 -2 -9 -8 -9 -13 0 -5 21 2 48 16 26 14 47 29 47
33 0 14 29 39 54 47 20 6 23 4 18 -9 -4 -9 -2 -16 3 -16 6 0 10 -7 10 -15 0
-21 18 -19 22 2 3 15 6 15 24 -5 12 -13 30 -21 44 -20 21 3 24 -2 27 -31 2
-19 7 -37 13 -41 10 -6 -2 -32 -16 -32 -5 0 -16 -4 -24 -9 -12 -7 -12 -10 -2
-17 10 -7 4 -19 -23 -53 -20 -24 -42 -49 -48 -54 -7 -6 -34 -35 -62 -63 -41
-43 -47 -54 -35 -62 25 -16 46 -11 60 15 7 14 19 25 26 25 24 0 25 -19 3 -41
-27 -27 -23 -30 101 -70 438 -142 945 -177 1410 -98 418 71 866 256 1202 497
l47 33 -26 25 c-17 15 -33 22 -45 19 -13 -5 -16 -2 -12 9 8 20 -33 77 -50 70
-8 -3 -34 15 -60 40 -25 25 -51 46 -59 46 -7 0 -23 9 -35 20 -12 12 -22 16
-22 10 0 -5 -5 -10 -11 -10 -5 0 -7 4 -4 10 7 11 -19 65 -37 77 -7 4 -13 14
-13 22 0 8 -19 21 -42 28 -24 8 -43 21 -43 29 0 8 -4 14 -10 14 -5 0 -10 7
-10 16 0 11 -6 13 -19 9 -11 -3 -25 1 -34 9 -8 8 -40 23 -70 34 -31 10 -73 30
-94 44 -21 15 -81 41 -133 59 -96 32 -175 40 -310 30 -137 -10 -242 4 -180 24
11 3 41 26 66 51 46 43 46 44 23 53 -20 7 -30 3 -58 -26 -19 -20 -48 -41 -65
-48 -17 -8 -41 -23 -53 -35 -13 -11 -23 -17 -23 -13 0 4 -11 9 -25 9 -15 1
-25 -3 -25 -12 0 -7 -12 -17 -27 -20 -16 -4 -34 -11 -40 -16 -7 -6 -24 -7 -38
-4 -18 5 -27 2 -31 -9 -3 -8 -10 -13 -14 -10 -5 3 -37 7 -72 9 -55 3 -71 10
-131 50 -38 25 -77 46 -87 46 -10 0 -29 12 -42 28 -22 26 -47 35 -93 33 -74
-3 -119 -1 -124 7 -3 4 -21 19 -40 31 -27 20 -35 21 -42 10 -7 -11 -10 -9 -15
9 -6 19 -11 22 -40 16 -28 -5 -34 -3 -34 11 0 17 -1 17 -18 1 -18 -15 -20 -15
-38 9 -10 14 -24 23 -30 21 -7 -3 -29 2 -50 10 -22 8 -46 17 -55 20 -9 3 -23
21 -32 40 -9 19 -21 34 -26 34 -5 0 -9 9 -8 20 1 11 5 20 10 20 5 0 -6 18 -23
40 -24 30 -35 38 -45 30 -9 -8 -14 -5 -18 9 -3 14 -11 18 -26 14 -15 -4 -21
-1 -21 11 0 19 -11 21 -28 4 -9 -9 -12 -8 -12 5 0 9 -6 17 -12 17 -7 0 -23 3
-35 6 -18 5 -23 1 -29 -19z m561 -1077 c-3 -5 -12 -10 -18 -10 -7 0 -6 4 3 10
19 12 23 12 15 0z m-35 -52 c0 -19 -18 -43 -25 -36 -9 9 4 48 16 48 5 0 9 -6
9 -12z m-40 -55 c0 -5 -7 -17 -15 -27 -8 -11 -15 -35 -15 -54 0 -30 -2 -33
-15 -22 -8 7 -15 21 -15 32 0 29 -16 13 -24 -22 -3 -19 -10 -29 -17 -25 -19
12 1 59 39 92 35 31 62 42 62 26z"/>
<path d="M1725 550 c-3 -5 1 -10 9 -10 8 0 18 5 21 10 3 6 -1 10 -9 10 -8 0
-18 -4 -21 -10z"/>
</g>
</svg>
