<?xml version="1.0" standalone="no"?>
<!DOCTYPE svg PUBLIC "-//W3C//DTD SVG 20010904//EN"
 "http://www.w3.org/TR/2001/REC-SVG-20010904/DTD/svg10.dtd">
<svg version="1.0" xmlns="http://www.w3.org/2000/svg"
 width="240.000000pt" height="240.000000pt" viewBox="0 0 240.000000 240.000000"
 preserveAspectRatio="xMidYMid meet">
<metadata>
Created by potrace 1.11, written by Peter Selinger 2001-2013
</metadata>
<g transform="translate(0.000000,240.000000) scale(0.100000,-0.100000)"
fill="#000000" stroke="none">
<path d="M1065 2342 c-58 -7 -204 -42 -259 -62 -31 -12 -59 -21 -62 -20 -4 1
-10 -2 -13 -7 -3 -4 -30 -19 -58 -32 -29 -14 -53 -28 -53 -33 0 -5 -4 -7 -9
-4 -5 3 -14 -1 -21 -9 -7 -8 -18 -15 -25 -15 -8 0 -15 -3 -17 -8 -1 -4 -32
-30 -68 -59 -103 -81 -235 -234 -276 -318 -8 -16 -26 -50 -39 -75 -13 -25 -24
-53 -24 -62 -1 -10 -5 -18 -11 -18 -5 0 -9 -3 -8 -7 1 -5 -8 -39 -20 -78 -36
-115 -49 -220 -46 -360 1 -71 5 -141 8 -155 4 -14 9 -41 12 -60 18 -108 98
-292 179 -415 36 -54 49 -69 141 -160 93 -92 152 -138 214 -170 19 -9 43 -24
53 -33 9 -8 17 -12 17 -8 0 3 10 0 23 -8 50 -32 217 -85 328 -103 24 -4 107
-7 184 -7 111 0 161 5 240 23 55 13 106 27 115 31 8 5 47 20 85 36 106 42 258
146 355 243 80 80 180 208 180 229 0 5 9 20 19 34 11 13 23 37 26 51 4 15 11
27 16 27 5 0 8 3 7 8 -1 4 8 33 20 64 21 56 47 156 60 233 9 54 9 269 0 325
-6 39 -13 71 -22 115 -9 42 -40 131 -63 181 -14 32 -27 61 -28 64 -6 18 -20
46 -25 50 -3 3 -17 23 -30 45 -62 102 -184 233 -291 312 -137 101 -325 179
-495 207 -80 13 -241 17 -319 8z"/>
</g>
</svg>
